<svg width="250" height="60" viewBox="0 0 250 60" fill="none" xmlns="http://www.w3.org/2000/svg">
<g clip-path="url(#clip0_304_42)">
<path d="M21 4.5L37.5 21" stroke="#FF9900" stroke-width="6" stroke-linecap="square"/>
<path d="M21 22.5L37.5 39" stroke="#0972D3" stroke-width="6" stroke-linecap="square"/>
<path d="M4.5 21L21 37.5" stroke="#FF9900" stroke-width="6" stroke-linecap="square"/>
<path d="M4.5 39L21 55.5" stroke="#0972D3" stroke-width="6" stroke-linecap="square"/>
<path d="M4.5 21L21 4.5" stroke="#FF9900" stroke-width="6" stroke-linecap="square"/>
<path d="M4.5 39L21 22.5" stroke="#0972D3" stroke-width="6" stroke-linecap="square"/>
<path d="M21 37.5L37.5 21" stroke="#FF9900" stroke-width="6" stroke-linecap="square"/>
<path d="M21 55.5L37.5 39" stroke="#0972D3" stroke-width="6" stroke-linecap="square"/>
</g>
<path d="M67.6836 32H59.9688V9.75391H52.9961V3.44531H74.6367V9.75391H67.6836V32ZM113.506 32H103.389L92.9594 11.8828H92.7836C92.8487 12.4948 92.9073 13.2305 92.9594 14.0898C93.0115 14.9492 93.057 15.8281 93.0961 16.7266C93.1352 17.612 93.1547 18.4128 93.1547 19.1289V32H86.3188V3.44531H96.3969L106.788 23.2891H106.905C106.866 22.6641 106.827 21.9414 106.788 21.1211C106.748 20.2878 106.709 19.4479 106.67 18.6016C106.644 17.7552 106.631 17.0065 106.631 16.3555V3.44531H113.506V32ZM139.876 32H132.161V9.75391H125.188V3.44531H146.829V9.75391H139.876V32ZM175.464 32H158.511V3.44531H175.464V9.63672H166.226V14.1289H174.78V20.3203H166.226V25.7109H175.464V32ZM200.779 9.36328C199.867 9.36328 199.054 9.55859 198.337 9.94922C197.621 10.3268 197.009 10.8802 196.502 11.6094C195.994 12.3385 195.603 13.2305 195.33 14.2852C195.069 15.3268 194.939 16.5117 194.939 17.8398C194.939 19.6367 195.167 21.1471 195.623 22.3711C196.078 23.5951 196.768 24.5195 197.693 25.1445C198.63 25.7695 199.802 26.082 201.209 26.082C202.485 26.082 203.709 25.9062 204.88 25.5547C206.065 25.2031 207.257 24.7799 208.455 24.2852V30.8086C207.192 31.3685 205.896 31.7721 204.568 32.0195C203.253 32.2669 201.853 32.3906 200.369 32.3906C197.27 32.3906 194.731 31.7786 192.752 30.5547C190.785 29.3177 189.334 27.6055 188.396 25.418C187.472 23.2305 187.009 20.6914 187.009 17.8008C187.009 15.6393 187.309 13.6602 187.908 11.8633C188.52 10.0664 189.412 8.51042 190.584 7.19531C191.755 5.86719 193.201 4.84505 194.92 4.12891C196.651 3.39974 198.63 3.03516 200.857 3.03516C202.237 3.03516 203.689 3.19792 205.212 3.52344C206.749 3.83594 208.246 4.34375 209.705 5.04688L207.341 11.1211C206.3 10.6263 205.245 10.2096 204.177 9.87109C203.11 9.53255 201.977 9.36328 200.779 9.36328ZM246.113 32H238.359V20.3594H229.395V32H221.641V3.44531H229.395V14.0312H238.359V3.44531H246.113V32Z" fill="white"/>
<path d="M57.5303 48.0771C57.2113 48.0771 56.9264 48.1455 56.6758 48.2822C56.4251 48.4144 56.2109 48.6081 56.0332 48.8633C55.8555 49.1185 55.7188 49.4307 55.623 49.7998C55.5319 50.1644 55.4863 50.5791 55.4863 51.0439C55.4863 51.6729 55.5661 52.2015 55.7256 52.6299C55.8851 53.0583 56.1266 53.3818 56.4502 53.6006C56.7783 53.8193 57.1885 53.9287 57.6807 53.9287C58.1273 53.9287 58.5557 53.8672 58.9658 53.7441C59.3805 53.6211 59.7975 53.473 60.2168 53.2998V55.583C59.7747 55.779 59.3213 55.9202 58.8564 56.0068C58.3962 56.0934 57.9062 56.1367 57.3867 56.1367C56.3021 56.1367 55.4134 55.9225 54.7207 55.4941C54.0326 55.0612 53.5244 54.4619 53.1963 53.6963C52.8727 52.9307 52.7109 52.042 52.7109 51.0303C52.7109 50.2738 52.8158 49.5811 53.0254 48.9521C53.2396 48.3232 53.5518 47.7786 53.9619 47.3184C54.3721 46.8535 54.8779 46.4958 55.4795 46.2451C56.0856 45.9899 56.7783 45.8623 57.5576 45.8623C58.0407 45.8623 58.5488 45.9193 59.082 46.0332C59.6198 46.1426 60.1439 46.3203 60.6543 46.5664L59.8271 48.6924C59.4626 48.5192 59.0934 48.3734 58.7197 48.2549C58.346 48.1364 57.9495 48.0771 57.5303 48.0771ZM73.4834 50.9893C73.4834 51.7594 73.39 52.4613 73.2032 53.0947C73.0209 53.7236 72.7338 54.266 72.3418 54.7217C71.9499 55.1774 71.4463 55.5283 70.8311 55.7744C70.2159 56.016 69.4799 56.1367 68.6231 56.1367C67.7845 56.1367 67.0577 56.016 66.4424 55.7744C65.8317 55.5283 65.3282 55.1797 64.9317 54.7285C64.5352 54.2728 64.2413 53.7282 64.0498 53.0947C63.8584 52.4613 63.7627 51.7549 63.7627 50.9756C63.7627 49.9365 63.9336 49.0342 64.2754 48.2686C64.6218 47.4984 65.155 46.9036 65.875 46.4844C66.5951 46.0605 67.5157 45.8486 68.6368 45.8486C69.7761 45.8486 70.7012 46.0605 71.4121 46.4844C72.1276 46.9082 72.6517 47.5052 72.9844 48.2754C73.3171 49.0456 73.4834 49.9502 73.4834 50.9893ZM66.6065 50.9893C66.6065 51.5908 66.6748 52.1081 66.8116 52.541C66.9483 52.974 67.1648 53.3066 67.461 53.5391C67.7572 53.7715 68.1446 53.8877 68.6231 53.8877C69.1198 53.8877 69.514 53.7715 69.8057 53.5391C70.1019 53.3066 70.3138 52.974 70.4414 52.541C70.5736 52.1081 70.6397 51.5908 70.6397 50.9893C70.6397 50.0869 70.4893 49.3737 70.1885 48.8496C69.8877 48.3255 69.3705 48.0635 68.6368 48.0635C68.1491 48.0635 67.7549 48.182 67.4541 48.4189C67.1579 48.6559 66.9414 48.9932 66.8047 49.4307C66.6726 49.8682 66.6065 50.3877 66.6065 50.9893ZM70.0108 43.0186C70.1566 43.2327 70.3366 43.4697 70.5508 43.7295C70.765 43.9847 70.9815 44.2308 71.2002 44.4678C71.419 44.7048 71.6058 44.903 71.7608 45.0625V45.2607H70.0245C69.7829 45.1195 69.5551 44.9668 69.3409 44.8027C69.1267 44.6341 68.8988 44.445 68.6573 44.2354C68.4112 44.445 68.1879 44.6296 67.9873 44.7891C67.7914 44.9486 67.5704 45.1058 67.3243 45.2607H65.5606V45.0625C65.7383 44.8939 65.9366 44.6911 66.1553 44.4541C66.3786 44.2171 66.5951 43.9733 66.8047 43.7227C67.0144 43.4674 67.1875 43.2327 67.3243 43.0186H70.0108ZM86.7638 56H83.2227L79.5723 48.959H79.5108C79.5336 49.1732 79.5541 49.4307 79.5723 49.7314C79.5906 50.0322 79.6065 50.3398 79.6202 50.6543C79.6339 50.9642 79.6407 51.2445 79.6407 51.4951V56H77.2481V46.0059H80.7755L84.4122 52.9512H84.4532C84.4395 52.7324 84.4259 52.4795 84.4122 52.1924C84.3985 51.9007 84.3848 51.6068 84.3712 51.3105C84.3621 51.0143 84.3575 50.7523 84.3575 50.5244V46.0059H86.7638V56ZM94.8966 50.1484H99.2101V55.5352C98.6951 55.7129 98.1049 55.8587 97.4396 55.9727C96.7742 56.082 96.0769 56.1367 95.3478 56.1367C94.3862 56.1367 93.5431 55.9499 92.8185 55.5762C92.0939 55.2025 91.5288 54.6351 91.1232 53.874C90.7176 53.1084 90.5148 52.1423 90.5148 50.9756C90.5148 49.9274 90.7153 49.0228 91.1163 48.2617C91.5174 47.4961 92.1075 46.9059 92.8868 46.4912C93.6707 46.0719 94.63 45.8623 95.7648 45.8623C96.3891 45.8623 96.9816 45.9215 97.5421 46.04C98.1027 46.1585 98.5903 46.3089 99.005 46.4912L98.1505 48.6104C97.7905 48.4326 97.4168 48.3005 97.0294 48.2139C96.642 48.1227 96.2251 48.0771 95.7784 48.0771C95.1814 48.0771 94.7006 48.2116 94.3361 48.4805C93.976 48.7493 93.714 49.1094 93.5499 49.5605C93.3859 50.0072 93.3038 50.5016 93.3038 51.0439C93.3038 51.6637 93.3904 52.1878 93.5636 52.6162C93.7413 53.04 93.9988 53.3636 94.3361 53.5869C94.6779 53.8057 95.0903 53.915 95.5734 53.915C95.7329 53.915 95.9266 53.9036 96.1544 53.8809C96.3868 53.8581 96.5623 53.8307 96.6808 53.7988V52.2334H94.8966V50.1484ZM118.32 56H114.779L111.128 48.959H111.067C111.089 49.1732 111.11 49.4307 111.128 49.7314C111.146 50.0322 111.162 50.3398 111.176 50.6543C111.19 50.9642 111.196 51.2445 111.196 51.4951V56H108.804V46.0059H112.331L115.968 52.9512H116.009C115.995 52.7324 115.982 52.4795 115.968 52.1924C115.954 51.9007 115.941 51.6068 115.927 51.3105C115.918 51.0143 115.913 50.7523 115.913 50.5244V46.0059H118.32V56ZM126.452 50.1484H130.766V55.5352C130.251 55.7129 129.661 55.8587 128.995 55.9727C128.33 56.082 127.633 56.1367 126.904 56.1367C125.942 56.1367 125.099 55.9499 124.374 55.5762C123.65 55.2025 123.085 54.6351 122.679 53.874C122.273 53.1084 122.071 52.1423 122.071 50.9756C122.071 49.9274 122.271 49.0228 122.672 48.2617C123.073 47.4961 123.663 46.9059 124.443 46.4912C125.226 46.0719 126.186 45.8623 127.321 45.8623C127.945 45.8623 128.537 45.9215 129.098 46.04C129.658 46.1585 130.146 46.3089 130.561 46.4912L129.706 48.6104C129.346 48.4326 128.973 48.3005 128.585 48.2139C128.198 48.1227 127.781 48.0771 127.334 48.0771C126.737 48.0771 126.256 48.2116 125.892 48.4805C125.532 48.7493 125.27 49.1094 125.106 49.5605C124.942 50.0072 124.86 50.5016 124.86 51.0439C124.86 51.6637 124.946 52.1878 125.119 52.6162C125.297 53.04 125.555 53.3636 125.892 53.5869C126.234 53.8057 126.646 53.915 127.129 53.915C127.289 53.915 127.482 53.9036 127.71 53.8809C127.943 53.8581 128.118 53.8307 128.237 53.7988V52.2334H126.452V50.1484ZM143.328 56H140.615V51.9258H137.477V56H134.763V46.0059H137.477V49.7109H140.615V46.0059H143.328V56ZM153.389 56H147.455V46.0059H153.389V48.1729H150.156V49.7451H153.15V51.9121H150.156V53.7988H153.389V56ZM150.477 59.2744C150.09 59.2744 149.757 59.1924 149.479 59.0283C149.205 58.8688 149.069 58.5589 149.069 58.0986C149.069 57.6247 149.205 57.3079 149.479 57.1484C149.757 56.9889 150.09 56.9092 150.477 56.9092C150.864 56.9092 151.199 56.9889 151.482 57.1484C151.764 57.3079 151.906 57.6247 151.906 58.0986C151.906 58.5589 151.764 58.8688 151.482 59.0283C151.199 59.1924 150.864 59.2744 150.477 59.2744ZM151.789 43.0186C151.935 43.2327 152.115 43.4697 152.329 43.7295C152.544 43.9847 152.76 44.2308 152.979 44.4678C153.198 44.7048 153.384 44.903 153.539 45.0625V45.2607H151.803C151.562 45.1195 151.334 44.9668 151.119 44.8027C150.905 44.6341 150.677 44.445 150.436 44.2354C150.19 44.445 149.966 44.6296 149.766 44.7891C149.57 44.9486 149.349 45.1058 149.103 45.2607H147.339V45.0625C147.517 44.8939 147.715 44.6911 147.934 44.4541C148.157 44.2171 148.374 43.9733 148.583 43.7227C148.793 43.4674 148.966 43.2327 149.103 43.0186H151.789ZM166.155 46.0059C167.23 46.0059 168.142 46.1904 168.889 46.5596C169.636 46.9287 170.204 47.4688 170.591 48.1797C170.983 48.8906 171.179 49.7611 171.179 50.791C171.179 51.9531 170.963 52.9193 170.53 53.6895C170.097 54.4596 169.486 55.0384 168.698 55.4258C167.914 55.8086 166.991 56 165.929 56H162.696V52.1514H161.828V49.9639H162.696V46.0059H166.155ZM166.182 48.1865H165.396V49.9639H166.838V52.1514H165.396V53.7852H165.997C166.818 53.7852 167.419 53.5482 167.802 53.0742C168.185 52.5957 168.376 51.8665 168.376 50.8867C168.376 50.2806 168.294 49.7793 168.13 49.3828C167.971 48.9818 167.729 48.6833 167.406 48.4873C167.082 48.2868 166.674 48.1865 166.182 48.1865ZM174.937 56V46.0059H177.651V56H174.937ZM178.15 43.5518C178.15 43.9027 178.054 44.2057 177.863 44.4609C177.676 44.7116 177.386 44.8893 176.995 44.9941L176.919 45.3154H175.504L175.313 44.4336C175.614 44.3971 175.817 44.3311 175.921 44.2354C176.026 44.1351 176.079 44.0007 176.079 43.832C176.079 43.6999 176.033 43.5951 175.942 43.5176C175.851 43.4401 175.734 43.4014 175.593 43.4014C175.42 43.4014 175.267 43.4173 175.135 43.4492C175.003 43.4766 174.841 43.5244 174.65 43.5928V42.1982C174.814 42.139 175.039 42.0889 175.327 42.0479C175.618 42.0068 175.894 41.9863 176.154 41.9863C176.833 41.9863 177.334 42.1299 177.658 42.417C177.986 42.6995 178.15 43.0778 178.15 43.5518ZM191.293 56H187.752L184.102 48.959H184.041C184.063 49.1732 184.084 49.4307 184.102 49.7314C184.12 50.0322 184.136 50.3398 184.15 50.6543C184.164 50.9642 184.17 51.2445 184.17 51.4951V56H181.778V46.0059H185.305L188.942 52.9512H188.983C188.969 52.7324 188.956 52.4795 188.942 52.1924C188.928 51.9007 188.915 51.6068 188.901 51.3105C188.892 51.0143 188.887 50.7523 188.887 50.5244V46.0059H191.293V56ZM203.979 56H201.265V51.9258H198.127V56H195.414V46.0059H198.127V49.7109H201.265V46.0059H203.979V56ZM218.153 48.0771C217.834 48.0771 217.549 48.1455 217.298 48.2822C217.048 48.4144 216.834 48.6081 216.656 48.8633C216.478 49.1185 216.341 49.4307 216.246 49.7998C216.155 50.1644 216.109 50.5791 216.109 51.0439C216.109 51.6729 216.189 52.2015 216.348 52.6299C216.508 53.0583 216.749 53.3818 217.073 53.6006C217.401 53.8193 217.811 53.9287 218.303 53.9287C218.75 53.9287 219.178 53.8672 219.588 53.7441C220.003 53.6211 220.42 53.473 220.839 53.2998V55.583C220.397 55.779 219.944 55.9202 219.479 56.0068C219.019 56.0934 218.529 56.1367 218.009 56.1367C216.925 56.1367 216.036 55.9225 215.343 55.4941C214.655 55.0612 214.147 54.4619 213.819 53.6963C213.495 52.9307 213.334 52.042 213.334 51.0303C213.334 50.2738 213.438 49.5811 213.648 48.9521C213.862 48.3232 214.174 47.7786 214.585 47.3184C214.995 46.8535 215.501 46.4958 216.102 46.2451C216.708 45.9899 217.401 45.8623 218.18 45.8623C218.663 45.8623 219.171 45.9193 219.705 46.0332C220.242 46.1426 220.767 46.3203 221.277 46.5664L220.45 48.6924C220.085 48.5192 219.716 48.3734 219.342 48.2549C218.969 48.1364 218.572 48.0771 218.153 48.0771ZM230.886 56L230.394 54.127H227.147L226.641 56H223.674L226.935 45.9648H230.538L233.839 56H230.886ZM229.834 51.9121L229.403 50.2715C229.357 50.0938 229.291 49.8408 229.205 49.5127C229.118 49.18 229.032 48.8382 228.945 48.4873C228.863 48.1318 228.799 47.8402 228.754 47.6123C228.713 47.8402 228.653 48.1227 228.576 48.46C228.503 48.7926 228.425 49.123 228.343 49.4512C228.266 49.7793 228.198 50.0527 228.138 50.2715L227.708 51.9121H229.834ZM246.238 50.9893C246.238 51.7594 246.145 52.4613 245.958 53.0947C245.775 53.7236 245.488 54.266 245.096 54.7217C244.704 55.1774 244.201 55.5283 243.586 55.7744C242.97 56.016 242.234 56.1367 241.378 56.1367C240.539 56.1367 239.812 56.016 239.197 55.7744C238.586 55.5283 238.083 55.1797 237.686 54.7285C237.29 54.2728 236.996 53.7282 236.804 53.0947C236.613 52.4613 236.517 51.7549 236.517 50.9756C236.517 49.9365 236.688 49.0342 237.03 48.2686C237.376 47.4984 237.91 46.9036 238.63 46.4844C239.35 46.0605 240.27 45.8486 241.391 45.8486C242.531 45.8486 243.456 46.0605 244.167 46.4844C244.882 46.9082 245.406 47.5052 245.739 48.2754C246.072 49.0456 246.238 49.9502 246.238 50.9893ZM239.361 50.9893C239.361 51.5908 239.429 52.1081 239.566 52.541C239.703 52.974 239.919 53.3066 240.216 53.5391C240.512 53.7715 240.899 53.8877 241.378 53.8877C241.874 53.8877 242.269 53.7715 242.56 53.5391C242.856 53.3066 243.068 52.974 243.196 52.541C243.328 52.1081 243.394 51.5908 243.394 50.9893C243.394 50.0869 243.244 49.3737 242.943 48.8496C242.642 48.3255 242.125 48.0635 241.391 48.0635C240.904 48.0635 240.509 48.182 240.209 48.4189C239.912 48.6559 239.696 48.9932 239.559 49.4307C239.427 49.8682 239.361 50.3877 239.361 50.9893Z" fill="#FF9900"/>
<defs>
<clipPath id="clip0_304_42">
<rect width="42" height="60" fill="white"/>
</clipPath>
</defs>
</svg>
